HIERARCHY
ROOT hip
{
  OFFSET 108.893 80.3563 -50.3098
  CHANNELS 6 Xposition Yposition Zposition Zrotation Xrotation Yrotation
  JOINT abdomen
  {
    OFFSET 0 20.6881 -0.73152
    CHANNELS 3 Zrotation Xrotation Yrotation
    JOINT chest
    {
      OFFSET 0 11.7043 -0.48768
      CHANNELS 3 Zrotation Xrotation Yrotation
      JOINT neck
      {
        OFFSET 0 22.1894 -2.19456
        CHANNELS 3 Zrotation Xrotation Yrotation
        JOINT head
        {
          OFFSET -0.24384 7.07133 1.2192
          CHANNELS 3 Zrotation Xrotation Yrotation
          JOINT leftEye
          {
            OFFSET 4.14528 8.04674 8.04672
            CHANNELS 3 Zrotation Xrotation Yrotation
            End Site
            {
              OFFSET 1 0 0
            }
          }
          JOINT rightEye
          {
            OFFSET -3.6576 8.04674 8.04672
            CHANNELS 3 Zrotation Xrotation Yrotation
            End Site
            {
              OFFSET 1 0 0
            }
          }
        }
      }
      JOINT rCollar
      {
        OFFSET -2.68224 19.2634 -4.8768
        CHANNELS 3 Zrotation Xrotation Yrotation
        JOINT rShldr
        {
          OFFSET -8.77824 -1.95073 1.46304
          CHANNELS 3 Zrotation Xrotation Yrotation
          JOINT rForeArm
          {
            OFFSET -28.1742 -1.7115 0.48768
            CHANNELS 3 Zrotation Xrotation Yrotation
            JOINT rHand
            {
              OFFSET -22.5879 0.773209 7.07136
              CHANNELS 3 Zrotation Xrotation Yrotation
              JOINT rThumb1
              {
                OFFSET -1.2192 -0.487915 3.41376
                CHANNELS 3 Zrotation Xrotation Yrotation
                JOINT rThumb2
                {
                  OFFSET -3.37035 -0.52449 3.41376
                  CHANNELS 3 Zrotation Xrotation Yrotation
                  End Site
                  {
                    OFFSET -1.78271 -1.18214 1.43049
                  }
                }
              }
              JOINT rIndex1
              {
                OFFSET -7.75947 0.938293 5.60832
                CHANNELS 3 Zrotation Xrotation Yrotation
                JOINT rIndex2
                {
                  OFFSET -2.54057 -0.884171 1.56538
                  CHANNELS 3 Zrotation Xrotation Yrotation
                  End Site
                  {
                    OFFSET -1.62519 -0.234802 1.16502
                  }
                }
              }
              JOINT rMid1
              {
                OFFSET -8.24714 1.18213 3.41376
                CHANNELS 3 Zrotation Xrotation Yrotation
                JOINT rMid2
                {
                  OFFSET -3.10165 -0.590103 1.0647
                  CHANNELS 3 Zrotation Xrotation Yrotation
                  End Site
                  {
                    OFFSET -2.48547 -0.328903 0.83742
                  }
                }
              }
              JOINT rRing1
              {
                OFFSET -8.82822 0.546677 1.51678
                CHANNELS 3 Zrotation Xrotation Yrotation
                JOINT rRing2
                {
                  OFFSET -2.60934 -0.819778 -0.0198488
                  CHANNELS 3 Zrotation Xrotation Yrotation
                  End Site
                  {
                    OFFSET -2.33842 -0.294052 0.168128
                  }
                }
              }
              JOINT rPinky1
              {
                OFFSET -8.27202 -0.0477905 -0.4584
                CHANNELS 3 Zrotation Xrotation Yrotation
                JOINT rPinky2
                {
                  OFFSET -1.82734 -0.647385 -0.700984
                  CHANNELS 3 Zrotation Xrotation Yrotation
                  End Site
                  {
                    OFFSET -1.69225 -0.51767 -0.607171
                  }
                }
              }
            }
          }
        }
      }
      JOINT lCollar
      {
        OFFSET 2.68224 19.2634 -4.8768
        CHANNELS 3 Zrotation Xrotation Yrotation
        JOINT lShldr
        {
          OFFSET 8.77824 -1.95073 1.46304
          CHANNELS 3 Zrotation Xrotation Yrotation
          JOINT lForeArm
          {
            OFFSET 28.1742 -1.7115 0.48768
            CHANNELS 3 Zrotation Xrotation Yrotation
            JOINT lHand
            {
              OFFSET 22.5879 0.773209 7.07136
              CHANNELS 3 Zrotation Xrotation Yrotation
              JOINT lThumb1
              {
                OFFSET 1.2192 -0.487915 3.41376
                CHANNELS 3 Zrotation Xrotation Yrotation
                JOINT lThumb2
                {
                  OFFSET 3.37035 -0.52449 3.41376
                  CHANNELS 3 Zrotation Xrotation Yrotation
                  End Site
                  {
                    OFFSET 1.78271 -1.18214 1.43049
                  }
                }
              }
              JOINT lIndex1
              {
                OFFSET 7.75947 0.938293 5.60832
                CHANNELS 3 Zrotation Xrotation Yrotation
                JOINT lIndex2
                {
                  OFFSET 2.54057 -0.884171 1.56538
                  CHANNELS 3 Zrotation Xrotation Yrotation
                  End Site
                  {
                    OFFSET 1.62519 -0.234802 1.16502
                  }
                }
              }
              JOINT lMid1
              {
                OFFSET 8.24714 1.18213 3.41376
                CHANNELS 3 Zrotation Xrotation Yrotation
                JOINT lMid2
                {
                  OFFSET 3.10165 -0.590103 1.0647
                  CHANNELS 3 Zrotation Xrotation Yrotation
                  End Site
                  {
                    OFFSET 2.48547 -0.328903 0.83742
                  }
                }
              }
              JOINT lRing1
              {
                OFFSET 8.82822 0.546677 1.51678
                CHANNELS 3 Zrotation Xrotation Yrotation
                JOINT lRing2
                {
                  OFFSET 2.60934 -0.819778 -0.0198488
                  CHANNELS 3 Zrotation Xrotation Yrotation
                  End Site
                  {
                    OFFSET 2.33842 -0.294052 0.168128
                  }
                }
              }
              JOINT lPinky1
              {
                OFFSET 8.27202 -0.0477905 -0.4584
                CHANNELS 3 Zrotation Xrotation Yrotation
                JOINT lPinky2
                {
                  OFFSET 1.82734 -0.647385 -0.700984
                  CHANNELS 3 Zrotation Xrotation Yrotation
                  End Site
                  {
                    OFFSET 1.69225 -0.51767 -0.607171
                  }
                }
              }
            }
          }
        }
      }
    }
  }
  JOINT rButtock
  {
    OFFSET -8.77824 4.35084 1.2192
    CHANNELS 3 Zrotation Xrotation Yrotation
    JOINT rThigh
    {
      OFFSET 0 -1.70687 -2.19456
      CHANNELS 3 Zrotation Xrotation Yrotation
      JOINT rShin
      {
        OFFSET 0 -36.8199 0.73152
        CHANNELS 3 Zrotation Xrotation Yrotation
        JOINT rFoot
        {
          OFFSET 0.73152 -45.1104 -5.12064
          CHANNELS 3 Zrotation Xrotation Yrotation
          End Site
          {
            OFFSET -1.1221 -3.69964 12.103
          }
        }
      }
    }
  }
  JOINT lButtock
  {
    OFFSET 8.77824 4.35084 1.2192
    CHANNELS 3 Zrotation Xrotation Yrotation
    JOINT lThigh
    {
      OFFSET 0 -1.70687 -2.19456
      CHANNELS 3 Zrotation Xrotation Yrotation
      JOINT lShin
      {
        OFFSET 0 -36.8199 0.73152
        CHANNELS 3 Zrotation Xrotation Yrotation
        JOINT lFoot
        {
          OFFSET -0.73152 -45.1104 -5.12064
          CHANNELS 3 Zrotation Xrotation Yrotation
          End Site
          {
            OFFSET 1.1221 -3.69964 12.103
          }
        }
      }
    }
  }
}
MOTION
Frames:	6
Frame Time:	0.00833333
-55.1488 82.8682 -28.251 8.96875 -0.681697 -100.837 -4.65864 -2.34573 -4.53248 6.25017 -15.4959 -0.320643 1.75221 -0.388609 -1.2773 -12.6413 9.90972 -0.640849 -0 0 0 -0 0 0 4.45613e-014 -2.09695e-012 3.49349e-013 35.9191 -12.2242 16.512 -19.2514 -53.8987 116.003 -0.0064493 2.26748 0.318807 -2.97415e-009 3.88886e-009 -6.92412e-010 -5.14676e-009 6.72603e-009 -1.19181e-009 -2.97415e-009 3.88886e-009 -6.92414e-010 7.73091 5.47488 0.417314 -2.97415e-009 3.88885e-009 -6.92407e-010 2.90554 0.965183 0.102902 -2.97415e-009 3.88885e-009 -6.92405e-010 10.2786 0.731801 0.0259123 -2.97416e-009 3.88886e-009 -6.92388e-010 2.22167 -0.733487 -0.20892 4.45527e-014 -2.09696e-012 3.4916e-013 -79.5872 30.3268 2.54888 18.6531 -11.4058 -35.5045 0.0767651 7.87958 -1.11451 -1.21581e-009 8.92877e-010 -2.25635e-010 -2.10357e-009 1.54803e-009 -3.83426e-010 -1.21582e-009 8.92883e-010 -2.25638e-010 -7.73091 5.47488 -0.417314 -1.21581e-009 8.92882e-010 -2.25633e-010 -2.90554 0.965183 -0.102902 -1.21581e-009 8.92881e-010 -2.25632e-010 -10.2786 0.731801 -0.0259123 -1.21581e-009 8.92879e-010 -2.25639e-010 -2.22167 -0.733487 0.20892 -2.03217e-016 0 -3.88251e-019 3.89252 -34.1393 20.1747 0.0476334 8.84137 0.394651 -17.8309 -26.1417 -37.8053 2.03217e-016 0 3.88251e-019 -17.5552 0.822925 -20.8627 0.0432535 5.983 0.381197 3.76967 -17.8077 17.6381 
-53.6899 82.8976 -28.3418 9.18041 -1.03411 -101.858 -4.9228 -2.58164 -4.98067 6.74577 -15.4911 -0.382578 1.65902 -0.420062 -1.47024 -12.3174 9.42095 -1.13425 -0 0 0 -0 0 0 2.78733e-014 -2.1587e-012 3.30877e-013 35.4827 -14.2588 16.4356 -19.0488 -54.0466 116.476 -0.00258723 1.45223 0.204141 -3.36977e-009 4.07178e-009 -3.99681e-010 -5.83195e-009 7.04055e-009 -6.826e-010 -3.36977e-009 4.07178e-009 -3.99681e-010 7.73091 5.47488 0.417314 -3.36977e-009 4.07178e-009 -3.99675e-010 2.90554 0.965183 0.102902 -3.36977e-009 4.07178e-009 -3.99673e-010 10.2786 0.731801 0.0259123 -3.36978e-009 4.07178e-009 -3.99656e-010 2.22167 -0.733487 -0.20892 2.7838e-014 -2.15871e-012 3.30678e-013 -79.9951 30.6044 2.65388 18.8564 -11.638 -35.971 0.0789922 7.99243 -1.13068 -1.03902e-009 1.02359e-009 -1.2476e-010 -1.79785e-009 1.7732e-009 -2.10484e-010 -1.03903e-009 1.0236e-009 -1.24767e-010 -7.73091 5.47488 -0.417314 -1.03902e-009 1.02359e-009 -1.24757e-010 -2.90554 0.965183 -0.102902 -1.03903e-009 1.0236e-009 -1.24756e-010 -10.2786 0.731801 -0.0259123 -1.03902e-009 1.02359e-009 -1.24764e-010 -2.22167 -0.733487 0.20892 -2.03217e-016 0 -3.88251e-019 4.61173 -33.4004 24.4221 0.0182986 5.40134 0.237939 -20.2247 -27.5827 -40.4558 2.03217e-016 0 3.88251e-019 -17.0309 2.03945 -21.4747 0.057395 5.08983 0.482232 3.40849 -16.6248 17.7447 
-52.083 82.804 -28.5213 9.41114 -1.29555 -102.962 -5.23769 -2.83897 -5.52934 7.11643 -15.5442 -0.483907 1.53757 -0.484459 -1.67385 -11.9964 9.03416 -1.61954 -0 0 0 -0 0 0 -2.29181e-014 -1.7908e-012 1.80252e-013 35.0684 -16.2411 16.2708 -18.8459 -54.1794 116.948 0.00109826 0.482664 0.0678801 -2.39385e-009 2.69336e-009 -9.38826e-011 -4.14453e-009 4.6567e-009 -1.53873e-010 -2.39385e-009 2.69335e-009 -9.38832e-011 7.73091 5.47488 0.417314 -2.39385e-009 2.69335e-009 -9.38779e-011 2.90554 0.965183 0.102902 -2.39385e-009 2.69335e-009 -9.38763e-011 10.2786 0.731801 0.0259123 -2.39386e-009 2.69336e-009 -9.38601e-011 2.22167 -0.733487 -0.20892 -2.29657e-014 -1.79081e-012 1.8006e-013 -80.5188 30.7471 3.03753 19.0834 -11.9026 -36.4934 0.0783503 7.95842 -1.12581 -2.72265e-010 7.40825e-010 1.43243e-010 -4.7087e-010 1.28085e-009 2.47782e-010 -2.72277e-010 7.40829e-010 1.43239e-010 -7.73091 5.47488 -0.417314 -2.7227e-010 7.40826e-010 1.43246e-010 -2.90554 0.965183 -0.102902 -2.72274e-010 7.40827e-010 1.43247e-010 -10.2786 0.731801 -0.0259123 -2.72267e-010 7.40825e-010 1.43238e-010 -2.22167 -0.733487 0.20892 -2.03217e-016 0 -3.88251e-019 4.91069 -33.465 25.4423 0.000657202 3.91656 0.175006 -20.439 -28.6606 -40.0417 2.03217e-016 0 3.88251e-019 -16.6727 3.05743 -21.8608 0.0681132 4.80831 0.549023 3.02955 -15.9456 17.3188 
-50.4126 82.6806 -28.8069 9.66456 -1.46453 -104.134 -5.58014 -3.12857 -6.14302 7.39662 -15.6265 -0.612379 1.37809 -0.577298 -1.89201 -11.6467 8.72354 -2.11118 -0 0 0 -0 0 0 -9.80868e-014 -1.16182e-012 -6.09244e-014 34.6513 -18.1833 16.0255 -18.6833 -54.2823 117.324 0.00195628 -0.602008 -0.0845438 -5.20284e-010 2.68796e-010 2.48356e-010 -9.04427e-010 4.64705e-010 4.36085e-010 -5.20283e-010 2.68793e-010 2.48353e-010 7.73091 5.47488 0.417314 -5.20284e-010 2.68793e-010 2.48357e-010 2.90554 0.965183 0.102902 -5.20282e-010 2.68793e-010 2.48359e-010 10.2786 0.731801 0.0259123 -5.20292e-010 2.68795e-010 2.48372e-010 2.22167 -0.733487 -0.20892 -9.81418e-014 -1.16183e-012 -6.10984e-014 -81.1551 30.7936 3.6581 19.3286 -12.1926 -37.0662 0.0763648 7.85516 -1.11102 9.10751e-010 1.94952e-010 5.3739e-010 1.57671e-009 3.31745e-010 9.21568e-010 9.1074e-010 1.94954e-010 5.3739e-010 -7.73091 5.47488 -0.417314 9.10747e-010 1.94948e-010 5.3739e-010 -2.90554 0.965183 -0.102902 9.10744e-010 1.9495e-010 5.37391e-010 -10.2786 0.731801 -0.0259123 9.10752e-010 1.9495e-010 5.3738e-010 -2.22167 -0.733487 0.20892 -2.03217e-016 0 -3.88251e-019 4.93248 -34.0755 24.4573 0.00193186 3.81495 0.167816 -19.1287 -29.5781 -37.5493 2.03217e-016 0 3.88251e-019 -16.4169 3.94545 -22.0732 0.0749108 4.94219 0.596106 2.63458 -15.5591 16.5196 
-48.5677 82.5026 -29.0991 9.88474 -1.58691 -105.294 -5.93338 -3.42734 -6.75384 7.64875 -15.7212 -0.738783 1.16053 -0.682114 -2.11378 -11.2873 8.45714 -2.58268 -0 0 0 -0 0 0 -1.65144e-013 -4.98742e-013 -2.93057e-013 34.3741 -19.9258 15.9369 -18.6498 -54.3052 117.401 -0.00126602 -1.54225 -0.216761 1.32703e-009 -2.0954e-009 5.41927e-010 2.29048e-009 -3.62272e-009 9.41389e-010 1.32703e-009 -2.0954e-009 5.41922e-010 7.73091 5.47488 0.417314 1.32703e-009 -2.0954e-009 5.41925e-010 2.90554 0.965183 0.102902 1.32704e-009 -2.0954e-009 5.41927e-010 10.2786 0.731801 0.0259123 1.32703e-009 -2.0954e-009 5.41937e-010 2.22167 -0.733487 -0.20892 -1.65205e-013 -4.98744e-013 -2.93214e-013 -81.8661 30.6998 4.46254 19.5689 -12.4808 -37.6384 0.0748054 7.77393 -1.09939 1.96809e-009 -3.30499e-010 8.82989e-010 3.40677e-009 -5.81447e-010 1.51228e-009 1.96808e-009 -3.30499e-010 8.82994e-010 -7.73091 5.47488 -0.417314 1.96809e-009 -3.30506e-010 8.82986e-010 -2.90554 0.965183 -0.102902 1.96809e-009 -3.30504e-010 8.82988e-010 -10.2786 0.731801 -0.0259123 1.9681e-009 -3.30503e-010 8.82975e-010 -2.22167 -0.733487 0.20892 -2.03217e-016 0 -3.88251e-019 4.85789 -34.7684 22.6116 0.012614 4.48736 0.192592 -16.8957 -29.8011 -34.1259 2.03217e-016 0 3.88251e-019 -16.1287 4.82806 -22.1631 0.0775913 5.27034 0.619291 2.22902 -15.1336 15.6156 
-46.5728 82.3402 -29.2973 10.0107 -1.73263 -106.357 -6.2783 -3.71259 -7.29373 7.93556 -15.8116 -0.833817 0.865188 -0.782454 -2.32822 -10.9378 8.20315 -3.00747 -0 0 0 -0 0 0 -1.91601e-013 -2.85258e-014 -4.16553e-013 34.4089 -21.302 16.2469 -18.8321 -54.1966 116.98 -0.00530173 -2.07856 -0.292253 2.22421e-009 -3.29273e-009 7.01723e-010 3.84231e-009 -5.69285e-009 1.21615e-009 2.22422e-009 -3.29273e-009 7.01716e-010 7.73091 5.47488 0.417314 2.22421e-009 -3.29273e-009 7.01719e-010 2.90554 0.965183 0.102902 2.22422e-009 -3.29273e-009 7.01721e-010 10.2786 0.731801 0.0259123 2.22421e-009 -3.29272e-009 7.01729e-010 2.22167 -0.733487 -0.20892 -1.91669e-013 -2.85262e-014 -4.16702e-013 -82.6088 30.4224 5.39512 19.7839 -12.7424 -38.1579 0.0753214 7.806 -1.10397 2.35782e-009 -5.51998e-010 1.00535e-009 4.08122e-009 -9.66071e-010 1.72131e-009 2.35781e-009 -5.51998e-010 1.00536e-009 -7.73091 5.47488 -0.417314 2.35781e-009 -5.52006e-010 1.00534e-009 -2.90554 0.965183 -0.102902 2.35781e-009 -5.52004e-010 1.00535e-009 -10.2786 0.731801 -0.0259123 2.35782e-009 -5.52002e-010 1.00533e-009 -2.22167 -0.733487 0.20892 -2.03217e-016 0 -3.88251e-019 4.94188 -35.091 21.0922 0.0209356 5.32462 0.225824 -14.4977 -28.8595 -31.0487 2.03217e-016 0 3.88251e-019 -15.6685 5.82792 -22.1851 0.0770267 5.57164 0.614287 1.82671 -14.3398 14.8812 
